<svg width="284" height="245" viewBox="0 0 284 245" fill="none" xmlns="http://www.w3.org/2000/svg">
<path d="M202.457 235.722C201.79 237.238 202.477 239.009 203.993 239.677C205.51 240.345 207.28 239.657 207.948 238.141L205.203 236.931L202.457 235.722ZM114.217 118.445L111.68 120.046L111.68 120.047L114.217 118.445ZM198.839 97.3764L195.875 96.9101L195.875 96.9105L198.839 97.3764ZM45.7889 41.7411C44.3591 42.5784 43.8788 44.4161 44.7161 45.8459C45.5533 47.2756 47.3911 47.7559 48.8208 46.9187L47.3049 44.3299L45.7889 41.7411ZM224.344 232.831C225.845 232.13 226.494 230.345 225.793 228.844C225.092 227.342 223.307 226.693 221.806 227.394L223.075 230.113L224.344 232.831ZM204.548 238.761L202.013 240.366C202.82 241.641 204.449 242.118 205.817 241.48L204.548 238.761ZM195.557 219.766C194.531 218.466 192.644 218.244 191.344 219.271C190.043 220.298 189.822 222.184 190.848 223.485L193.203 221.626L195.557 219.766ZM205.203 236.931C207.948 238.141 207.949 238.14 207.949 238.138C207.95 238.137 207.951 238.135 207.952 238.133C207.953 238.13 207.955 238.124 207.958 238.118C207.964 238.105 207.972 238.087 207.982 238.063C208.003 238.016 208.032 237.948 208.07 237.859C208.146 237.682 208.257 237.422 208.397 237.083C208.679 236.407 209.082 235.418 209.577 234.147C210.566 231.607 211.921 227.941 213.399 223.409C216.353 214.356 219.811 201.804 221.805 187.851C225.765 160.126 224.063 125.919 199.816 103.158L197.763 105.345L195.71 107.533C217.734 128.207 219.752 159.792 215.865 187.002C213.934 200.516 210.576 212.717 207.695 221.549C206.256 225.96 204.939 229.52 203.985 231.97C203.509 233.195 203.123 234.142 202.858 234.778C202.726 235.096 202.624 235.337 202.555 235.495C202.521 235.575 202.496 235.633 202.479 235.671C202.471 235.69 202.465 235.704 202.462 235.713C202.46 235.717 202.458 235.72 202.458 235.721C202.457 235.722 202.457 235.722 202.457 235.723C202.457 235.722 202.457 235.722 205.203 236.931ZM197.763 105.345L199.816 103.158C175.932 80.7374 150.297 77.9786 132.262 84.2273C123.313 87.3281 116.132 92.6964 112.15 99.091C108.114 105.571 107.361 113.204 111.68 120.046L114.217 118.445L116.754 116.844C113.881 112.292 114.192 107.162 117.243 102.263C120.347 97.2783 126.275 92.6518 134.227 89.8967C149.994 84.4336 173.323 86.5183 195.71 107.533L197.763 105.345ZM114.217 118.445L111.68 120.047C115.77 126.522 123.096 131.278 131.524 134.122C140 136.983 149.902 138.024 159.565 136.808C178.931 134.37 197.895 122.698 201.802 97.8423L198.839 97.3764L195.875 96.9105C192.497 118.396 176.343 128.648 158.816 130.855C150.033 131.96 141.044 131.003 133.443 128.437C125.794 125.856 119.857 121.758 116.753 116.843L114.217 118.445ZM198.839 97.3764L201.802 97.8427C203.804 85.1198 198.77 72.7939 189.553 62.262C180.338 51.7328 166.772 42.7703 151.066 36.545C119.696 24.1108 78.9847 22.3017 45.7889 41.7411L47.3049 44.3299L48.8208 46.9187C80.0396 28.637 118.74 30.186 148.855 42.1228C163.892 48.0829 176.588 56.5591 185.038 66.2135C193.485 75.8652 197.518 86.4678 195.875 96.9101L198.839 97.3764ZM223.075 230.113L221.806 227.394L203.279 236.043L204.548 238.761L205.817 241.48L224.344 232.831L223.075 230.113ZM204.548 238.761C207.082 237.156 207.082 237.156 207.082 237.156C207.082 237.156 207.082 237.156 207.082 237.155C207.081 237.155 207.081 237.154 207.08 237.153C207.079 237.151 207.078 237.149 207.075 237.145C207.071 237.139 207.065 237.128 207.056 237.115C207.039 237.088 207.014 237.048 206.981 236.996C206.915 236.892 206.818 236.74 206.694 236.545C206.446 236.155 206.089 235.594 205.653 234.912C204.782 233.548 203.594 231.696 202.326 229.743C199.837 225.909 196.911 221.481 195.557 219.766L193.203 221.626L190.848 223.485C191.987 224.926 194.733 229.066 197.293 233.01C198.551 234.947 199.731 236.787 200.597 238.143C201.03 238.821 201.385 239.377 201.631 239.764C201.754 239.957 201.849 240.108 201.914 240.211C201.947 240.262 201.972 240.301 201.988 240.327C201.997 240.34 202.003 240.35 202.007 240.357C202.009 240.36 202.011 240.362 202.012 240.364C202.012 240.365 202.013 240.365 202.013 240.366C202.013 240.366 202.013 240.366 202.013 240.366C202.013 240.366 202.013 240.366 204.548 238.761Z" fill="#00733B"/>
</svg>
