<svg width="145" height="144" viewBox="0 0 145 144" fill="none" xmlns="http://www.w3.org/2000/svg">
<g style="mix-blend-mode:multiply" opacity="0.4">
<path d="M89.6515 114.322C106.156 97.9316 106.156 71.3574 89.6515 54.967C73.1472 38.5765 46.3882 38.5765 29.8838 54.967C13.3794 71.3574 13.3795 97.9316 29.8839 114.322C46.3882 130.713 73.1471 130.713 89.6515 114.322Z" fill="white"/>
<path d="M90.4719 113.508C106.976 97.1172 106.976 70.543 90.4718 54.1525C73.9675 37.7621 47.2085 37.7621 30.7042 54.1525C14.1998 70.543 14.1998 97.1172 30.7042 113.508C47.2086 129.898 73.9675 129.898 90.4719 113.508Z" fill="#FFF8F7"/>
<path d="M91.2922 112.691C107.797 96.3008 107.797 69.7266 91.2922 53.3361C74.7878 36.9457 48.0289 36.9457 31.5245 53.3361C15.0201 69.7266 15.0201 96.3008 31.5245 112.691C48.0289 129.082 74.7878 129.082 91.2922 112.691Z" fill="#FFF1EF"/>
<path d="M92.1164 111.875C108.621 95.4844 108.621 68.9102 92.1164 52.5197C75.612 36.1293 48.8531 36.1293 32.3487 52.5197C15.8443 68.9102 15.8443 95.4844 32.3487 111.875C48.8531 128.265 75.612 128.265 92.1164 111.875Z" fill="#FFEAE8"/>
<path d="M92.9367 111.058C109.441 94.668 109.441 68.0938 92.9367 51.7033C76.4323 35.3129 49.6734 35.3129 33.169 51.7033C16.6646 68.0938 16.6646 94.6679 33.169 111.058C49.6734 127.449 76.4323 127.449 92.9367 111.058Z" fill="#FFE3E0"/>
<path d="M93.757 110.244C110.261 93.8535 110.261 67.2793 93.757 50.8889C77.2526 34.4984 50.4937 34.4984 33.9893 50.8889C17.4849 67.2793 17.4849 93.8535 33.9893 110.244C50.4937 126.634 77.2526 126.634 93.757 110.244Z" fill="#FFDCD8"/>
<path d="M94.5773 109.429C111.082 93.039 111.082 66.4649 94.5773 50.0744C78.0729 33.684 51.314 33.684 34.8096 50.0744C18.3052 66.4649 18.3052 93.039 34.8096 109.429C51.314 125.82 78.0729 125.82 94.5773 109.429Z" fill="#FFD5D0"/>
<path d="M95.4015 108.611C111.906 92.2207 111.906 65.6465 95.4015 49.2561C78.8971 32.8656 52.1382 32.8656 35.6338 49.2561C19.1294 65.6465 19.1294 92.2207 35.6338 108.611C52.1382 125.002 78.8971 125.002 95.4015 108.611Z" fill="#FFCEC9"/>
<path d="M96.2218 107.797C112.726 91.4062 112.726 64.832 96.2218 48.4416C79.7175 32.0511 52.9585 32.0511 36.4541 48.4416C19.9498 64.8321 19.9498 91.4062 36.4542 107.797C52.9585 124.187 79.7174 124.187 96.2218 107.797Z" fill="#FFC7C1"/>
<path d="M97.0421 106.98C113.547 90.5898 113.547 64.0156 97.0422 47.6252C80.5378 31.2347 53.7788 31.2347 37.2745 47.6252C20.7701 64.0156 20.7701 90.5898 37.2745 106.98C53.7789 123.371 80.5378 123.371 97.0421 106.98Z" fill="#FFC0B9"/>
<path d="M97.8664 106.164C114.371 89.7734 114.371 63.1992 97.8664 46.8088C81.362 30.4183 54.6031 30.4183 38.0987 46.8088C21.5943 63.1992 21.5943 89.7734 38.0987 106.164C54.6031 122.554 81.362 122.554 97.8664 106.164Z" fill="#FFB9B1"/>
<path d="M98.6867 105.349C115.191 88.959 115.191 62.3848 98.6867 45.9943C82.1823 29.6039 55.4234 29.6039 38.919 45.9943C22.4146 62.3848 22.4146 88.959 38.919 105.349C55.4234 121.74 82.1823 121.74 98.6867 105.349Z" fill="#FFB2A9"/>
<path d="M99.507 104.533C116.011 88.1426 116.011 61.5684 99.507 45.1779C83.0026 28.7875 56.2437 28.7875 39.7393 45.1779C23.2349 61.5684 23.2349 88.1426 39.7393 104.533C56.2437 120.923 83.0026 120.923 99.507 104.533Z" fill="#FFABA2"/>
<path d="M100.327 103.719C116.832 87.3281 116.832 60.7539 100.327 44.3635C83.8229 27.973 57.064 27.973 40.5596 44.3635C24.0552 60.7539 24.0552 87.3281 40.5596 103.719C57.064 120.109 83.8229 120.109 100.327 103.719Z" fill="#FFA49A"/>
<path d="M101.152 102.9C117.656 86.5097 117.656 59.9356 101.152 43.5451C84.6471 27.1547 57.8882 27.1547 41.3838 43.5451C24.8795 59.9356 24.8794 86.5097 41.3838 102.9C57.8882 119.291 84.6471 119.291 101.152 102.9Z" fill="#FF9D92"/>
<path d="M101.972 102.084C118.476 85.6933 118.476 59.1192 101.972 42.7287C85.4674 26.3382 58.7085 26.3382 42.2042 42.7287C25.6998 59.1192 25.6998 85.6933 42.2041 102.084C58.7085 118.474 85.4675 118.474 101.972 102.084Z" fill="#FF968A"/>
<path d="M102.792 101.271C119.297 84.8808 119.297 58.3067 102.792 41.9162C86.2878 25.5258 59.5289 25.5258 43.0245 41.9162C26.5201 58.3067 26.5201 84.8808 43.0245 101.271C59.5289 117.662 86.2878 117.662 102.792 101.271Z" fill="#FF9083"/>
<path d="M103.612 100.455C120.117 84.0644 120.117 57.4903 103.612 41.0998C87.1081 24.7093 60.3492 24.7093 43.8448 41.0998C27.3404 57.4903 27.3404 84.0644 43.8448 100.455C60.3492 116.845 87.1081 116.845 103.612 100.455Z" fill="#FF897B"/>
<path d="M104.437 99.6385C120.941 83.248 120.941 56.6738 104.437 40.2834C87.9323 23.8929 61.1734 23.8929 44.669 40.2834C28.1646 56.6739 28.1646 83.248 44.669 99.6385C61.1734 116.029 87.9323 116.029 104.437 99.6385Z" fill="#FF8273"/>
<path d="M105.257 98.8201C121.761 82.4297 121.761 55.8555 105.257 39.465C88.7526 23.0746 61.9937 23.0746 45.4893 39.465C28.9849 55.8555 28.9849 82.4297 45.4893 98.8201C61.9937 115.211 88.7526 115.211 105.257 98.8201Z" fill="#FF7B6B"/>
<path d="M106.081 98.0076C122.586 81.6172 122.586 55.043 106.081 38.6525C89.5768 22.2621 62.8179 22.2621 46.3135 38.6525C29.8092 55.043 29.8092 81.6172 46.3135 98.0076C62.8179 114.398 89.5768 114.398 106.081 98.0076Z" fill="#FF7464"/>
<path d="M106.898 97.1912C123.402 80.8008 123.402 54.2266 106.898 37.8361C90.3932 21.4457 63.6343 21.4457 47.1299 37.8361C30.6255 54.2266 30.6256 80.8008 47.1299 97.1912C63.6343 113.582 90.3932 113.582 106.898 97.1912Z" fill="#FF6D5C"/>
<path d="M107.722 96.3748C124.226 79.9844 124.226 53.4102 107.722 37.0197C91.2175 20.6293 64.4585 20.6293 47.9542 37.0197C31.4498 53.4102 31.4498 79.9844 47.9542 96.3748C64.4586 112.765 91.2175 112.765 107.722 96.3748Z" fill="#FF6654"/>
<path d="M108.546 95.5604C125.05 79.1699 125.05 52.5957 108.546 36.2053C92.0417 19.8148 65.2828 19.8148 48.7784 36.2053C32.274 52.5957 32.274 79.1699 48.7784 95.5604C65.2828 111.951 92.0417 111.951 108.546 95.5604Z" fill="#FF5F4C"/>
<path d="M109.366 94.744C125.871 78.3535 125.871 51.7793 109.366 35.3889C92.862 18.9984 66.1031 18.9984 49.5987 35.3889C33.0943 51.7793 33.0943 78.3535 49.5987 94.7439C66.1031 111.134 92.862 111.134 109.366 94.744Z" fill="#FF5844"/>
<path d="M110.187 93.9275C126.691 77.5371 126.691 50.9629 110.187 34.5725C93.6823 18.182 66.9234 18.182 50.419 34.5724C33.9146 50.9629 33.9146 77.5371 50.419 93.9275C66.9234 110.318 93.6823 110.318 110.187 93.9275Z" fill="#FF513D"/>
<path d="M111.007 93.1111C127.511 76.7207 127.511 50.1465 111.007 33.7561C94.5026 17.3656 67.7437 17.3656 51.2393 33.7561C34.7349 50.1465 34.7349 76.7207 51.2393 93.1111C67.7437 109.502 94.5026 109.502 111.007 93.1111Z" fill="#FF4A35"/>
<path d="M111.831 92.2967C128.336 75.9062 128.336 49.3321 111.831 32.9416C95.3268 16.5511 68.5679 16.5511 52.0635 32.9416C35.5591 49.3321 35.5591 75.9062 52.0635 92.2967C68.5679 108.687 95.3268 108.687 111.831 92.2967Z" fill="#FF432D"/>
<path d="M112.652 91.4822C129.156 75.0918 129.156 48.5176 112.652 32.1271C96.1471 15.7367 69.3882 15.7367 52.8838 32.1271C36.3794 48.5176 36.3795 75.0918 52.8838 91.4822C69.3882 107.873 96.1471 107.873 112.652 91.4822Z" fill="#FF3C25"/>
<path d="M113.472 90.6639C129.976 74.2734 129.976 47.6992 113.472 31.3088C96.9675 14.9183 70.2085 14.9183 53.7041 31.3088C37.1998 47.6992 37.1998 74.2734 53.7042 90.6639C70.2085 107.054 96.9674 107.054 113.472 90.6639Z" fill="#FF351E"/>
<path d="M114.296 89.8475C130.8 73.457 130.8 46.8828 114.296 30.4924C97.7917 14.1019 71.0328 14.1019 54.5284 30.4924C38.024 46.8828 38.024 73.457 54.5284 89.8475C71.0328 106.238 97.7917 106.238 114.296 89.8475Z" fill="#FF2E16"/>
<path d="M115.116 89.033C131.621 72.6426 131.621 46.0684 115.116 29.6779C98.612 13.2875 71.8531 13.2875 55.3487 29.6779C38.8443 46.0684 38.8443 72.6426 55.3487 89.033C71.8531 105.423 98.612 105.423 115.116 89.033Z" fill="#FF270E"/>
</g>
<path d="M115.116 89.033C131.621 72.6426 131.621 46.0684 115.116 29.6779C98.612 13.2875 71.8531 13.2875 55.3487 29.6779C38.8443 46.0684 38.8443 72.6426 55.3487 89.033C71.8531 105.423 98.612 105.423 115.116 89.033Z" fill="#FF270E"/>
<path d="M134.154 46.59C131.889 38.0042 127.339 30.1365 120.999 23.839C111.446 14.352 98.7438 9.12756 85.2345 9.12756C71.7253 9.12756 59.0231 14.352 49.4701 23.839C43.1305 30.1365 38.5813 38.0025 36.3149 46.5883L34.5938 46.1401C36.9392 37.2501 41.6498 29.1076 48.2117 22.5894C58.1007 12.7686 71.2493 7.35938 85.2345 7.35938C99.2198 7.35938 112.368 12.7686 122.257 22.5894C128.821 29.1093 133.532 37.2518 135.877 46.1418L134.156 46.59H134.154Z" fill="#FF270E"/>
<path d="M138.205 45.4448C138.63 47.2293 137.517 49.0188 135.72 49.4408C133.923 49.8628 132.121 48.7571 131.696 46.9725C131.271 45.188 132.384 43.3985 134.181 42.9765C135.978 42.5545 137.78 43.6602 138.205 45.4448Z" fill="#FF270E"/>
<path d="M32.2545 45.4448C31.8295 47.2293 32.943 49.0188 34.7399 49.4408C36.5369 49.8628 38.3388 48.7571 38.7637 46.9725C39.1887 45.188 38.0752 43.3985 36.2783 42.9765C34.4813 42.5545 32.6794 43.6602 32.2545 45.4448Z" fill="#FF270E"/>
<path d="M85.2337 111.352C71.2484 111.352 58.0999 105.943 48.2109 96.1218C41.7972 89.7524 37.1393 81.8095 34.7461 73.1534L36.4607 72.6855C38.7732 81.0456 43.2713 88.7187 49.4676 94.8722C59.0206 104.359 71.7228 109.584 85.232 109.584C98.7413 109.584 111.444 104.359 120.996 94.8722C127.193 88.7187 131.691 81.0456 134.003 72.6855L135.718 73.1534C133.325 81.8078 128.669 89.7508 122.253 96.1202C112.364 105.941 99.2157 111.35 85.2304 111.35L85.2337 111.352Z" fill="#FF270E"/>
<path d="M32.4155 73.8765C31.9708 72.0968 33.0645 70.2959 34.8565 69.8543C36.6485 69.4127 38.4619 70.4988 38.9066 72.2784C39.3513 74.058 38.2577 75.8589 36.4657 76.3006C34.6736 76.7422 32.8602 75.6561 32.4155 73.8765Z" fill="#FF270E"/>
<path d="M138.047 73.8765C138.492 72.0968 137.398 70.2959 135.606 69.8543C133.814 69.4127 132.001 70.4988 131.556 72.2784C131.111 74.058 132.205 75.8589 133.997 76.3006C135.789 76.7422 137.603 75.6561 138.047 73.8765Z" fill="#FF270E"/>
<path d="M104.555 47.1279L97.547 40.168L85.2336 52.3965L72.9184 40.168L65.9102 47.1279L78.2236 59.358L65.9102 71.5865L72.9184 78.5464L85.2336 66.3179L97.547 78.5464L104.555 71.5865L92.2418 59.358L104.555 47.1279Z" fill="white"/>
</svg>
