<svg width="147" height="144" viewBox="0 0 147 144" fill="none" xmlns="http://www.w3.org/2000/svg">
<g style="mix-blend-mode:multiply" opacity="0.4">
<path d="M90.7191 114.324C107.288 97.9336 107.288 71.3594 90.7191 54.969C74.1505 38.5785 47.2875 38.5785 30.7189 54.969C14.1503 71.3594 14.1503 97.9336 30.7189 114.324C47.2875 130.714 74.1505 130.714 90.7191 114.324Z" fill="white"/>
<path d="M91.5453 113.51C108.114 97.1191 108.114 70.5449 91.5453 54.1545C74.9767 37.764 48.1136 37.764 31.545 54.1545C14.9764 70.5449 14.9764 97.1191 31.545 113.51C48.1136 129.9 74.9767 129.9 91.5453 113.51Z" fill="#F9FDF7"/>
<path d="M92.3675 112.691C108.936 96.3008 108.936 69.7266 92.3675 53.3361C75.7989 36.9457 48.9359 36.9457 32.3673 53.3361C15.7987 69.7266 15.7987 96.3008 32.3673 112.691C48.9359 129.082 75.7989 129.082 92.3675 112.691Z" fill="#F3FBEF"/>
<path d="M93.1918 111.875C109.76 95.4843 109.76 68.9102 93.1917 52.5197C76.6231 36.1293 49.7601 36.1293 33.1915 52.5197C16.6229 68.9102 16.6229 95.4843 33.1915 111.875C49.7601 128.265 76.6231 128.265 93.1918 111.875Z" fill="#ECFAE6"/>
<path d="M94.0179 111.06C110.587 94.6699 110.587 68.0957 94.0179 51.7053C77.4493 35.3148 50.5863 35.3148 34.0177 51.7053C17.4491 68.0957 17.4491 94.6699 34.0177 111.06C50.5863 127.451 77.4493 127.451 94.0179 111.06Z" fill="#E6F8DE"/>
<path d="M94.8421 110.246C111.411 93.8554 111.411 67.2813 94.8421 50.8908C78.2735 34.5004 51.4105 34.5004 34.8419 50.8908C18.2733 67.2813 18.2733 93.8554 34.8419 110.246C51.4105 126.636 78.2735 126.636 94.8421 110.246Z" fill="#E0F6D6"/>
<path d="M95.6663 109.429C112.235 93.039 112.235 66.4649 95.6663 50.0744C79.0977 33.684 52.2347 33.684 35.6661 50.0744C19.0975 66.4649 19.0975 93.039 35.6661 109.429C52.2347 125.82 79.0977 125.82 95.6663 109.429Z" fill="#DAF4CE"/>
<path d="M96.4906 108.611C113.059 92.2207 113.059 65.6465 96.4906 49.2561C79.922 32.8656 53.0589 32.8656 36.4903 49.2561C19.9217 65.6465 19.9217 92.2207 36.4903 108.611C53.0589 125.002 79.922 125.002 96.4906 108.611Z" fill="#D4F2C5"/>
<path d="M97.3167 107.799C113.885 91.4082 113.885 64.834 97.3167 48.4436C80.7481 32.0531 53.8851 32.0531 37.3165 48.4436C20.7479 64.834 20.7479 91.4082 37.3165 107.799C53.8851 124.189 80.7481 124.189 97.3167 107.799Z" fill="#CDF1BD"/>
<path d="M98.1351 106.982C114.704 90.5918 114.704 64.0176 98.1351 47.6272C81.5665 31.2367 54.7035 31.2367 38.1349 47.6272C21.5663 64.0176 21.5663 90.5918 38.1349 106.982C54.7035 123.373 81.5665 123.373 98.1351 106.982Z" fill="#C7EFB5"/>
<path d="M98.9632 106.166C115.532 89.7754 115.532 63.2012 98.9632 46.8107C82.3946 30.4203 55.5316 30.4203 38.963 46.8108C22.3944 63.2012 22.3944 89.7754 38.963 106.166C55.5316 122.556 82.3946 122.556 98.9632 106.166Z" fill="#C1EDAD"/>
<path d="M69.7899 117.644C93.2214 117.644 112.216 98.8531 112.216 75.6735C112.216 52.4939 93.2214 33.7031 69.7899 33.7031C46.3583 33.7031 27.3633 52.4939 27.3633 75.6735C27.3633 98.8531 46.3583 117.644 69.7899 117.644Z" fill="#BBEBA5"/>
<path d="M70.6102 116.827C94.0417 116.827 113.037 98.0367 113.037 74.8571C113.037 51.6775 94.0417 32.8867 70.6102 32.8867C47.1786 32.8867 28.1836 51.6775 28.1836 74.8571C28.1836 98.0367 47.1786 116.827 70.6102 116.827Z" fill="#B5E99C"/>
<path d="M101.438 103.719C118.006 87.3281 118.006 60.7539 101.438 44.3635C84.8692 27.973 58.0062 27.973 41.4376 44.3635C24.869 60.7539 24.869 87.3281 41.4376 103.719C58.0062 120.109 84.8692 120.109 101.438 103.719Z" fill="#AEE894"/>
<path d="M102.26 102.902C118.829 86.5117 118.829 59.9375 102.26 43.5471C85.6915 27.1566 58.8285 27.1566 42.2599 43.5471C25.6913 59.9375 25.6913 86.5117 42.2599 102.902C58.8285 119.293 85.6915 119.293 102.26 102.902Z" fill="#A8E68C"/>
<path d="M73.0867 114.38C96.5183 114.38 115.513 95.5894 115.513 72.4098C115.513 49.2302 96.5183 30.4395 73.0867 30.4395C49.6552 30.4395 30.6602 49.2302 30.6602 72.4098C30.6602 95.5894 49.6552 114.38 73.0867 114.38Z" fill="#A2E484"/>
<path d="M73.9109 113.564C97.3425 113.564 116.337 94.773 116.337 71.5934C116.337 48.4138 97.3425 29.623 73.9109 29.623C50.4794 29.623 31.4844 48.4138 31.4844 71.5934C31.4844 94.773 50.4794 113.564 73.9109 113.564Z" fill="#9CE27B"/>
<path d="M74.7391 112.747C98.1706 112.747 117.166 93.9566 117.166 70.777C117.166 47.5974 98.1706 28.8066 74.7391 28.8066C51.3075 28.8066 32.3125 47.5974 32.3125 70.777C32.3125 93.9566 51.3075 112.747 74.7391 112.747Z" fill="#96E073"/>
<path d="M75.5594 111.933C98.9909 111.933 117.986 93.1422 117.986 69.9626C117.986 46.783 98.9909 27.9922 75.5594 27.9922C52.1278 27.9922 33.1328 46.783 33.1328 69.9626C33.1328 93.1422 52.1278 111.933 75.5594 111.933Z" fill="#90DE6B"/>
<path d="M106.389 98.824C122.958 82.4336 122.958 55.8594 106.389 39.469C89.8204 23.0785 62.9574 23.0785 46.3888 39.469C29.8202 55.8594 29.8202 82.4336 46.3888 98.824C62.9574 115.214 89.8204 115.214 106.389 98.824Z" fill="#89DD63"/>
<path d="M107.211 98.0096C123.78 81.6191 123.78 55.0449 107.211 38.6545C90.6427 22.264 63.7797 22.264 47.2111 38.6545C30.6425 55.0449 30.6424 81.6191 47.2111 98.0096C63.7797 114.4 90.6427 114.4 107.211 98.0096Z" fill="#83DB5A"/>
<path d="M108.037 97.1932C124.606 80.8027 124.606 54.2285 108.037 37.8381C91.4688 21.4476 64.6058 21.4476 48.0372 37.8381C31.4686 54.2285 31.4686 80.8027 48.0372 97.1932C64.6058 113.584 91.4688 113.584 108.037 97.1932Z" fill="#7DD952"/>
<path d="M108.86 96.3768C125.428 79.9863 125.428 53.4121 108.86 37.0217C92.2911 20.6312 65.4281 20.6312 48.8595 37.0217C32.2909 53.4121 32.2909 79.9863 48.8595 96.3767C65.4281 112.767 92.2911 112.767 108.86 96.3768Z" fill="#77D74A"/>
<path d="M109.688 95.5623C126.256 79.1718 126.256 52.5977 109.688 36.2072C93.1192 19.8168 66.2562 19.8168 49.6876 36.2072C33.119 52.5977 33.119 79.1718 49.6876 95.5623C66.2562 111.953 93.1192 111.953 109.688 95.5623Z" fill="#71D542"/>
<path d="M110.51 94.7459C127.079 78.3554 127.079 51.7813 110.51 35.3908C93.9415 19.0004 67.0785 19.0004 50.5099 35.3908C33.9413 51.7813 33.9413 78.3554 50.5099 94.7459C67.0785 111.136 93.9415 111.136 110.51 94.7459Z" fill="#6AD43A"/>
<path d="M111.336 93.9295C127.905 77.539 127.905 50.9649 111.336 34.5744C94.7677 18.184 67.9047 18.184 51.3361 34.5744C34.7674 50.9649 34.7674 77.539 51.3361 93.9295C67.9047 110.32 94.7677 110.32 111.336 93.9295Z" fill="#64D231"/>
<path d="M112.16 93.1111C128.729 76.7207 128.729 50.1465 112.16 33.7561C95.5919 17.3656 68.7289 17.3656 52.1603 33.7561C35.5917 50.1465 35.5917 76.7207 52.1603 93.1111C68.7289 109.502 95.5919 109.502 112.16 93.1111Z" fill="#5ED029"/>
<path d="M112.981 92.2967C129.549 75.9062 129.549 49.3321 112.981 32.9416C96.4122 16.5512 69.5492 16.5512 52.9806 32.9416C36.412 49.3321 36.412 75.9062 52.9806 92.2967C69.5492 108.687 96.4122 108.687 112.981 92.2967Z" fill="#58CE21"/>
<path d="M113.807 91.4822C130.376 75.0918 130.376 48.5176 113.807 32.1271C97.2384 15.7367 70.3754 15.7367 53.8067 32.1272C37.2381 48.5176 37.2381 75.0918 53.8068 91.4822C70.3754 107.873 97.2384 107.873 113.807 91.4822Z" fill="#52CC19"/>
<path d="M114.635 90.6658C131.204 74.2754 131.204 47.7012 114.635 31.3107C98.0665 14.9203 71.2035 14.9203 54.6349 31.3108C38.0663 47.7012 38.0663 74.2754 54.6349 90.6658C71.2035 107.056 98.0665 107.056 114.635 90.6658Z" fill="#4BCB10"/>
<path d="M115.457 89.8494C132.026 73.459 132.026 46.8848 115.457 30.4943C98.8888 14.1039 72.0257 14.1039 55.4571 30.4943C38.8885 46.8848 38.8885 73.459 55.4571 89.8494C72.0258 106.24 98.8888 106.24 115.457 89.8494Z" fill="#45C908"/>
<path d="M116.282 89.033C132.85 72.6425 132.85 46.0684 116.282 29.6779C99.713 13.2875 72.85 13.2875 56.2814 29.6779C39.7128 46.0684 39.7128 72.6425 56.2814 89.033C72.85 105.423 99.713 105.423 116.282 89.033Z" fill="#3FC700"/>
</g>
<path d="M116.282 89.033C132.85 72.6425 132.85 46.0684 116.282 29.6779C99.713 13.2875 72.85 13.2875 56.2814 29.6779C39.7128 46.0684 39.7128 72.6425 56.2814 89.033C72.85 105.423 99.713 105.423 116.282 89.033Z" fill="#3FC700"/>
<path d="M135.389 46.59C133.114 38.0042 128.547 30.1365 122.183 23.839C112.593 14.352 99.841 9.12756 86.2792 9.12756C72.7174 9.12756 59.9658 14.352 50.3756 23.839C44.0114 30.1365 39.4445 38.0025 37.1693 46.5883L35.4414 46.1401C37.796 37.2501 42.5249 29.1076 49.1124 22.5894C59.0398 12.7686 72.2395 7.35938 86.2792 7.35938C100.319 7.35938 113.519 12.7686 123.446 22.5894C130.035 29.1076 134.764 37.2518 137.119 46.1418L135.391 46.59H135.389Z" fill="#3FC700"/>
<path d="M139.461 45.4448C139.888 47.2293 138.77 49.0188 136.966 49.4408C135.162 49.8628 133.353 48.7571 132.927 46.9725C132.5 45.188 133.618 43.3985 135.422 42.9765C137.226 42.5545 139.035 43.6602 139.461 45.4448Z" fill="#3FC700"/>
<path d="M33.0986 45.4448C32.672 47.2293 33.7898 49.0188 35.5937 49.4408C37.3976 49.8628 39.2065 48.7571 39.6331 46.9725C40.0597 45.188 38.942 43.3985 37.138 42.9765C35.3341 42.5545 33.5252 43.6602 33.0986 45.4448Z" fill="#3FC700"/>
<path d="M86.2797 111.352C72.2401 111.352 59.0404 105.943 49.1129 96.1218C42.6742 89.7524 37.9999 81.8095 35.5957 73.1534L37.317 72.6855C39.6385 81.0472 44.1541 88.7187 50.3745 94.8722C59.9646 104.359 72.7163 109.584 86.2781 109.584C99.8399 109.584 112.592 104.359 122.182 94.8722C128.402 88.7187 132.918 81.0456 135.239 72.6855L136.96 73.1534C134.558 81.8078 129.884 89.7508 123.443 96.1202C113.516 105.941 100.316 111.35 86.2764 111.35L86.2797 111.352Z" fill="#3FC700"/>
<path d="M33.2597 73.8765C32.8132 72.0968 33.9111 70.2959 35.7101 69.8543C37.5091 69.4127 39.3296 70.4988 39.776 72.2784C40.2224 74.058 39.1245 75.8589 37.3256 76.3006C35.5266 76.7422 33.7061 75.6561 33.2597 73.8765Z" fill="#3FC700"/>
<path d="M139.299 73.8765C139.746 72.0968 138.648 70.2959 136.849 69.8543C135.05 69.4127 133.23 70.4988 132.783 72.2784C132.337 74.058 133.435 75.8589 135.234 76.3006C137.033 76.7422 138.853 75.6561 139.299 73.8765Z" fill="#3FC700"/>
<path d="M104.125 39.75L78.5585 65.0412L68.4376 55.0291L61.4004 61.989L78.5585 78.9626L111.162 46.7115L104.125 39.75Z" fill="white"/>
</svg>
